<?xml version="1.0" encoding="UTF-8"?>
<svg width="245px" height="163px" viewBox="0 0 245 163" version="1.1" xmlns="http://www.w3.org/2000/svg" xmlns:xlink="http://www.w3.org/1999/xlink">
    <!-- Generator: Sketch 58 (84663) - https://sketch.com -->
    <title>Group 24</title>
    <desc>Created with Sketch.</desc>
    <defs>
        <polygon id="path-1" points="1.66118773 163 244.661188 163 244.661188 0 1.66118773 0"></polygon>
    </defs>
    <g id="Page-1" stroke="none" stroke-width="1" fill="none" fill-rule="evenodd">
        <g id="Custom-Preset" transform="translate(-478.000000, -110.000000)">
            <g id="Group-24" transform="translate(478.000000, 110.000000)">
                <path d="M38.8474742,34.8480095 C42.0778195,32.8829143 45.5498022,31.9240466 49.213714,31.9240466 C53.0226081,31.9240466 55.9160421,32.7387752 57.9409626,34.4162788 C59.9658831,36.0937824 60.9786885,38.3952021 60.9786885,41.3672113 C60.9786885,43.7633509 60.3511219,46.2089095 59.09806,48.7491881 C57.7959802,51.2894666 55.2884755,54.3095222 51.4795814,57.8560284 L7.7487547,98.0735594 L7.7487547,123 L104.661188,123 L104.661188,116.528845 C96.1755764,109.91355 89.2806289,101.381893 84.5555843,91.5543577 L63.9190692,91.5543577 L79.5895927,77.3655874 C78.3841678,72.2850303 77.7572917,66.9642415 77.7572917,61.4993136 C77.7572917,44.2431279 84.0730001,28.4249004 94.4875674,16.2492718 C90.4377263,11.3121673 85.0858055,7.42933673 78.4318049,4.64951284 C71.0549636,1.53336458 62.5693523,0 53.0226081,0 C40.4388283,0 29.7349867,2.49154585 20.8634461,7.47738306 C11.9919055,12.4625339 5.29026785,19.2693274 0.661187732,27.8497171 L31.4223054,43.0927612 C33.1579515,39.5455687 35.6171288,36.8131048 38.8474742,34.8480095" id="Fill-1" fill="#FFFFFF"></path>
                <path d="M169.700767,51.4442464 L169.798552,51.4136143 L179.050864,60.9885251 L184.661188,59.2023339 L179.736688,43 L175.924409,44.2130308 L178.150844,51.5388655 C178.451516,52.5293031 178.901193,53.8240194 179.498546,55.4250567 L179.433356,55.4461588 L170.248895,46.0189627 L164.661188,47.7976661 L169.585022,64 L173.376015,62.7944571 L171.156232,55.4904052 C170.868864,54.5448947 170.383931,53.1957212 169.700767,51.4442464" id="Fill-3" fill="#FFFFFF"></path>
                <path d="M194.952117,45.5189451 C195.39397,46.0451917 195.952136,46.4572528 196.627993,46.7558375 C197.303849,47.0537129 198.251562,47.2820841 199.470444,47.4402418 C200.815962,47.6083287 201.651491,47.737408 201.977719,47.8267707 C202.303947,47.9168425 202.554468,48.027482 202.730659,48.1622352 C202.905473,48.2948607 203.028669,48.4778413 203.098182,48.7083402 C203.209677,49.0785568 203.147047,49.4296243 202.912356,49.7622519 C202.676976,50.0955887 202.230305,50.3672228 201.573031,50.5778633 C200.811144,50.8225467 199.936385,50.9651014 198.950131,51.0069458 C197.963188,51.0494994 196.979686,50.9821229 196.001002,50.8055253 L197.227454,54.8708161 C198.145572,55.0069877 198.998308,55.0353568 199.78566,54.9566326 C200.572324,54.8764899 201.511089,54.6630125 202.601957,54.3126542 C203.908934,53.8942101 204.980531,53.304133 205.81606,52.5424229 C206.650901,51.7807128 207.203562,50.9119094 207.474042,49.9345942 C207.744522,48.9565697 207.72181,47.9445024 207.405906,46.8976829 C207.061783,45.7586639 206.50224,44.9019173 205.726589,44.326734 C204.950937,43.7529691 203.758209,43.3643126 202.149092,43.162892 C200.468399,42.9416131 199.422267,42.7529587 199.010696,42.5983471 C198.599814,42.4430263 198.343787,42.1990522 198.243991,41.8692615 C198.151078,41.5607476 198.204073,41.2607445 198.402288,40.969252 C198.60119,40.6777596 198.987984,40.4394593 199.563357,40.2543509 C200.676248,39.8983188 202.107798,39.8366161 203.858004,40.0692426 L204.151196,36.1124636 C202.143586,35.8699079 200.292896,36.0195548 198.597061,36.5628229 C196.67617,37.1784322 195.298992,38.0968815 194.464151,39.3188802 C193.628622,40.5408788 193.444861,41.9295458 193.914244,43.484172 C194.165453,44.3153864 194.510952,44.9941169 194.952117,45.5189451" id="Fill-5" fill="#FFFFFF"></path>
                <path d="M144.724839,62.0705217 C144.494521,60.5807342 145.530952,59.1495998 147.046979,58.923268 C148.562303,58.6969362 149.977916,59.7216395 150.214554,61.2514491 C150.444872,62.7412365 149.408441,64.172371 147.892414,64.3987027 C146.37709,64.6243445 144.960775,63.6003312 144.724839,62.0705217 L144.724839,62.0705217 Z M151.925087,66.4874413 L153.722691,69.3138283 L158.661188,67.8047198 L147.9198,53 L141.895017,54.8410157 L141.661188,73 L146.623559,71.4846812 L146.495058,68.1476677 L151.925087,66.4874413 Z" id="Fill-7" fill="#FFFFFF"></path>
                <path d="M205.386084,23.9752717 C205.386084,14.3761983 212.609947,6.43351107 221.92297,5.24821985 L221.92297,15.7345448 L218.098126,15.7345448 C216.595336,15.7345448 215.377119,16.9486786 215.377119,18.4464307 L215.377119,30.1901532 C215.377119,31.6879053 216.595336,32.9027258 218.098126,32.9027258 L221.92297,32.9027258 L221.92297,42.7023235 C212.609947,41.5170323 205.386084,33.5736583 205.386084,23.9752717 M243.283114,23.9752717 C243.283114,33.5736583 236.059251,41.5170323 226.746228,42.7023235 L226.746228,32.9027258 L229.882035,32.9027258 C231.384824,32.9027258 232.603042,31.6879053 232.603042,30.1901532 L232.603042,18.4464307 C232.603042,16.9486786 231.384824,15.7345448 229.882035,15.7345448 L226.746228,15.7345448 L226.746228,5.24821985 C236.059251,6.43351107 243.283114,14.3761983 243.283114,23.9752717 M218.044381,97.8794839 L216.089583,96.5946172 L226.402399,79.4635195 C226.627714,79.0899398 226.746228,78.6621088 226.746228,78.2267237 L226.746228,44.0860789 C236.821326,42.8932337 244.661188,34.3318052 244.661188,23.9752717 C244.661188,13.6180515 236.821326,5.05730967 226.746228,3.86446446 L226.746228,2 L221.92297,2 L221.92297,3.86446446 C211.847872,5.05730967 204.00801,13.6180515 204.00801,23.9752717 C204.00801,34.3318052 211.847872,42.8932337 221.92297,44.0860789 L221.92297,77.5605983 L212.058717,93.9459102 L211.298709,93.4452861 C210.88322,93.1726554 210.326478,93.2612432 210.017101,93.6492441 L194.869313,112.659228 C194.519282,113.09942 194.621949,113.744257 195.09325,114.053971 L205.420535,120.841583 C205.891148,121.151297 206.527129,120.991289 206.794475,120.497532 L208.837469,116.724653 L213.999045,120.117085 L215.616904,117.67165 L210.238281,114.136378 L218.360649,99.1327611 C218.596988,98.6966893 218.45987,98.1528013 218.044381,97.8794839" id="Fill-9" fill="#FFFFFF"></path>
                <mask id="mask-2" fill="white">
                    <use xlink:href="#path-1"></use>
                </mask>
                <g id="Clip-12"></g>
                <path d="M233.861465,86.6061859 L239.461603,86.6061859 L239.461603,85.2130612 L233.861465,85.2130612 L233.861465,86.6061859 Z M240.161534,81.0302404 L240.161534,80.6821315 L237.353503,80.6821315 L237.353503,65 L235.968872,65 L235.968872,80.6821315 L233.161534,80.6821315 L233.161534,81.0302404 C233.161534,83.6034886 231.745057,85.8258706 229.661188,87.0335671 L229.661188,88 L243.661188,88 L243.661188,87.0335671 C241.578011,85.8258706 240.161534,83.6034886 240.161534,81.0302404 L240.161534,81.0302404 Z" id="Fill-11" fill="#FFFFFF" mask="url(#mask-2)"></path>
                <path d="M233.861465,90.8060802 L239.461603,90.8060802 L239.461603,89.4030401 L233.861465,89.4030401 L233.861465,90.8060802 Z M229.661188,88.97283 C231.745057,90.1885205 233.161534,92.4256131 233.161534,95.0158944 L233.161534,95.3670013 L235.968872,95.3670013 L235.968872,120 L237.353503,120 L237.353503,95.3670013 L240.161534,95.3670013 L240.161534,95.0158944 C240.161534,92.4256131 241.578011,90.1885205 243.661188,88.97283 L243.661188,88 L229.661188,88 L229.661188,88.97283 Z" id="Fill-13" fill="#FFFFFF" mask="url(#mask-2)"></path>
                <path d="M25.5139113,152.059935 C24.9335422,154.809329 24.5784116,156.740418 24.4485195,157.853201 C24.3386639,156.990551 24.1182618,155.68653 23.7880042,153.941136 C23.4584374,152.195742 23.1330162,150.656137 22.8131223,149.321628 L20.9372865,141 L15.4458895,141 L13.5099441,149.321628 C13.2197595,150.475292 12.9067748,151.930364 12.5723716,153.685459 C12.2365867,155.441246 12.004439,156.830494 11.8745469,157.853201 C11.6741814,156.408523 11.3045416,154.468426 10.7642456,152.030141 L8.37851411,141 L2.66118773,141 L8.09316598,163 L15.1004317,163 C16.3806983,157.231678 17.1082324,153.941136 17.283725,153.128374 C17.4585266,152.315612 17.6360919,151.425939 17.8164209,150.457277 C17.9967498,149.489307 18.126642,148.679317 18.2067882,148.027306 C18.30628,148.830368 18.4638088,149.828131 18.6793744,151.021984 C18.8942492,152.215836 19.0517779,153.013354 19.1519607,153.414538 L21.252344,163 L28.2596098,163 L33.6611877,141 L27.9445523,141 L25.5139113,152.059935 Z" id="Fill-14" fill="#FFFFFF" mask="url(#mask-2)"></path>
                <path d="M53.4469853,156.398213 C52.7329771,157.447378 51.6381646,157.971609 50.1611877,157.971609 C47.2568745,157.971609 45.8043779,155.81206 45.8043779,151.49226 C45.8043779,147.13235 47.2670747,144.951692 50.1904281,144.951692 C51.6279645,144.951692 52.7091769,145.484366 53.4327051,146.549012 C54.1555534,147.613657 54.5179975,149.260937 54.5179975,151.49226 C54.5179975,153.713731 54.1609934,155.349049 53.4469853,156.398213 M50.1904281,140 C46.7645489,140 44.1533191,140.981613 42.3560585,142.942024 C40.559478,144.903843 39.6611877,147.743132 39.6611877,151.462002 C39.6611877,155.220981 40.5642381,158.084195 42.3710187,160.050236 C44.1777994,162.016276 46.774069,163 50.1611877,163 C53.597267,163 56.2064568,162.021202 57.9880772,160.065716 C59.7703776,158.109527 60.6611877,155.251943 60.6611877,151.49226 C60.6611877,147.723429 59.7751376,144.865141 58.0030374,142.919507 C56.2309371,140.973169 53.6265073,140 50.1904281,140" id="Fill-15" fill="#FFFFFF" mask="url(#mask-2)"></path>
                <path d="M83.4469853,156.398213 C82.7329771,157.447378 81.6381646,157.971609 80.1611877,157.971609 C77.2568745,157.971609 75.8043779,155.81206 75.8043779,151.49226 C75.8043779,147.13235 77.2670747,144.951692 80.1904281,144.951692 C81.6279645,144.951692 82.7091769,145.484366 83.4327051,146.549012 C84.1555534,147.613657 84.5179975,149.260937 84.5179975,151.49226 C84.5179975,153.713731 84.1609934,155.349049 83.4469853,156.398213 M80.1904281,140 C76.7645489,140 74.1533191,140.981613 72.3560585,142.942024 C70.559478,144.903843 69.6611877,147.743132 69.6611877,151.462002 C69.6611877,155.220981 70.5642381,158.084195 72.3710187,160.050236 C74.1777994,162.016276 76.774069,163 80.1611877,163 C83.597267,163 86.2064568,162.021202 87.9880772,160.065716 C89.7703776,158.109527 90.6611877,155.251943 90.6611877,151.49226 C90.6611877,147.723429 89.7751376,144.865141 88.0030374,142.919507 C86.2309371,140.973169 83.6265073,140 80.1904281,140" id="Fill-16" fill="#FFFFFF" mask="url(#mask-2)"></path>
                <path d="M110.097705,156.551951 C109.240477,157.600296 107.893304,158.124815 106.056186,158.124815 L104.708309,158.124815 L104.708309,145.79966 L106.469291,145.79966 C108.12312,145.79966 109.355385,146.286763 110.16679,147.259582 C110.978196,148.232402 111.383546,149.726969 111.383546,151.743977 C111.383546,153.900948 110.954932,155.503606 110.097705,156.551951 M106.40796,141 L98.6611877,141 L98.6611877,163 L105.902506,163 C109.628203,163 112.519232,162.006393 114.576296,160.020566 C116.632656,158.034046 117.661188,155.20497 117.661188,151.533338 C117.661188,148.122925 116.683412,145.514189 114.729272,143.708513 C112.774426,141.902145 110.00042,141 106.40796,141" id="Fill-17" fill="#FFFFFF" mask="url(#mask-2)"></path>
                <path d="M133.723223,158.410286 L131.624466,158.410286 L131.624466,153.790778 L133.602956,153.790778 C134.548405,153.790778 135.270699,153.986174 135.769146,154.377657 C136.267592,154.768448 136.516467,155.331076 136.516467,156.06277 C136.516467,157.628012 135.585617,158.410286 133.723223,158.410286 L133.723223,158.410286 Z M131.624466,145.498945 L133.300551,145.498945 C135.172679,145.498945 136.10909,146.116311 136.10909,147.350351 C136.10909,148.04255 135.874813,148.564297 135.406955,148.915593 C134.939097,149.266889 134.276588,149.442191 133.421513,149.442191 L131.624466,149.442191 L131.624466,145.498945 Z M138.766079,151.473056 L138.766079,151.322698 C139.802596,151.071872 140.638206,150.51063 141.272213,149.637586 C141.906219,148.764543 142.223223,147.711348 142.223223,146.477308 C142.223223,144.60165 141.496061,143.219332 140.041739,142.331738 C138.587417,141.444143 136.360051,141 133.361032,141 L125.661188,141 L125.661188,163 L134.251561,163 C136.848764,163 138.899554,162.425593 140.403929,161.277472 C141.908305,160.127964 142.661188,158.555794 142.661188,156.559573 C142.661188,155.215363 142.353917,154.12198 141.740071,153.279424 C141.126224,152.436175 140.134893,151.834745 138.766079,151.473056 L138.766079,151.473056 Z" id="Fill-18" fill="#FFFFFF" mask="url(#mask-2)"></path>
                <path d="M157.773009,150.52518 L156.651009,150.52518 L156.651009,145.498945 L157.833752,145.498945 C159.88575,145.498945 160.912097,146.256968 160.912097,147.770936 C160.912097,149.607792 159.865502,150.52518 157.773009,150.52518 M166.961963,147.500709 C166.961963,143.166672 163.949249,141 157.924518,141 L150.661188,141 L150.661188,163 L156.651009,163 L156.651009,154.994331 L158.16749,154.994331 L162.867743,163 L169.661188,163 L163.201481,153.414538 C165.708702,152.019747 166.961963,150.049164 166.961963,147.500709" id="Fill-19" fill="#FFFFFF" mask="url(#mask-2)"></path>
                <path d="M183.3902,153.03811 C184.287423,149.601581 184.867177,147.29883 185.128781,146.129168 C185.389705,144.960886 185.564789,144.121075 185.654034,143.611806 C185.752136,144.161789 185.957196,145.070606 186.267852,146.338948 C186.578507,147.60798 186.842156,148.642389 187.059478,149.441486 L187.991445,153.03811 L183.3902,153.03811 Z M181.718383,140 L174.661188,162 L181.082084,162 L182.176872,157.894106 L189.204773,157.894106 L190.270267,162 L196.661188,162 L189.515429,140 L181.718383,140 Z" id="Fill-20" fill="#FFFFFF" mask="url(#mask-2)"></path>
                <path d="M209.06278,145.248828 C209.404072,144.973316 209.951084,144.835207 210.703141,144.835207 C212.158018,144.835207 213.886737,145.315064 215.888626,146.274072 L217.661188,141.606568 C215.356453,140.535523 213.09556,140 210.879183,140 C208.369403,140 206.396518,140.576392 204.961201,141.729175 C203.525885,142.881958 202.808227,144.489231 202.808227,146.549585 C202.808227,147.65093 202.976175,148.605711 203.31342,149.411109 C203.649991,150.217211 204.168,150.931007 204.866098,151.5532 C205.564196,152.176098 206.61168,152.818725 208.007876,153.481787 C209.551111,154.206152 210.500119,154.686008 210.856925,154.920652 C211.213056,155.155295 211.472061,155.38712 211.633264,155.616832 C211.794467,155.845838 211.874732,156.113599 211.874732,156.420116 C211.874732,156.909837 211.675082,157.31007 211.274435,157.621519 C210.874462,157.932263 210.243813,158.087988 209.385186,158.087988 C208.388963,158.087988 207.294939,157.921694 206.103789,157.590515 C204.911963,157.259336 203.764655,156.7978 202.661188,156.205907 L202.661188,161.592139 C203.705974,162.112864 204.712314,162.477161 205.678859,162.686437 C206.646079,162.895714 207.841951,163 209.267825,163 C210.97631,163 212.465585,162.701939 213.735652,162.105113 C215.005043,161.507582 215.97631,160.671885 216.650801,159.595202 C217.324617,158.519224 217.661188,157.286817 217.661188,155.89939 C217.661188,154.390062 217.302359,153.13722 216.5847,152.142275 C215.866368,151.148035 214.58551,150.217211 212.739429,149.349805 C210.815781,148.431666 209.636097,147.798903 209.201725,147.452223 C208.767353,147.105542 208.550167,146.712356 208.550167,146.274072 C208.550167,145.866089 208.720813,145.524341 209.06278,145.248828" id="Fill-21" fill="#FFFFFF" mask="url(#mask-2)"></path>
                <path d="M231.06278,145.248828 C231.404072,144.973316 231.951084,144.835207 232.703141,144.835207 C234.158018,144.835207 235.886737,145.315064 237.888626,146.274072 L239.661188,141.606568 C237.356453,140.535523 235.09556,140 232.879183,140 C230.369403,140 228.396518,140.576392 226.961201,141.729175 C225.525885,142.881958 224.808227,144.489231 224.808227,146.549585 C224.808227,147.65093 224.976175,148.605711 225.31342,149.411109 C225.649991,150.217211 226.168,150.931007 226.866098,151.5532 C227.564196,152.176098 228.61168,152.818725 230.007876,153.481787 C231.551111,154.206152 232.500119,154.686008 232.856925,154.920652 C233.213056,155.155295 233.472061,155.38712 233.633264,155.616832 C233.794467,155.845838 233.874732,156.113599 233.874732,156.420116 C233.874732,156.909837 233.675082,157.31007 233.274435,157.621519 C232.874462,157.932263 232.243813,158.087988 231.385186,158.087988 C230.388963,158.087988 229.294939,157.921694 228.103789,157.590515 C226.911963,157.259336 225.764655,156.7978 224.661188,156.205907 L224.661188,161.592139 C225.705974,162.112864 226.712314,162.477161 227.678859,162.686437 C228.646079,162.895714 229.841951,163 231.267825,163 C232.97631,163 234.465585,162.701939 235.735652,162.105113 C237.005043,161.507582 237.97631,160.671885 238.650801,159.595202 C239.324617,158.519224 239.661188,157.286817 239.661188,155.89939 C239.661188,154.390062 239.302359,153.13722 238.5847,152.142275 C237.866368,151.148035 236.58551,150.217211 234.739429,149.349805 C232.815781,148.431666 231.636097,147.798903 231.201725,147.452223 C230.767353,147.105542 230.550167,146.712356 230.550167,146.274072 C230.550167,145.866089 230.720813,145.524341 231.06278,145.248828" id="Fill-22" fill="#FFFFFF" mask="url(#mask-2)"></path>
                <path d="M119.812324,62.0675998 C118.759808,58.6251218 118.877366,54.8271406 119.870072,51.2542657 C120.874465,47.677273 122.797318,44.3198961 125.384267,41.5870517 C127.969841,38.853521 131.224323,36.7500132 134.746918,35.5510481 C138.264701,34.3630637 142.059534,34.0377578 145.560818,34.9024951 C142.128281,35.970377 139.031917,37.1967942 136.220853,38.8391087 C133.410477,40.4622069 130.9019,42.4421808 128.717121,44.7351073 C126.539904,47.035583 124.696797,49.6462661 123.229049,52.5376457 C121.739302,55.4303979 120.685411,58.5873753 119.812324,62.0675998 L119.812324,62.0675998 Z M106.814333,62.4258481 C105.47033,57.2895831 105.757692,51.701733 107.298312,46.4584052 C108.853369,41.2068418 111.713243,36.2908789 115.5232,32.2719093 C119.326971,28.2467631 124.088387,25.1234143 129.254722,23.2834455 C134.41487,21.4551438 139.99025,20.8628673 145.201958,21.9266315 C140.076871,23.2779551 135.373203,24.9978215 131.096453,27.3936929 C126.821079,29.7634849 122.99256,32.7337889 119.68858,36.2064641 C116.391475,39.6866886 113.631284,43.6685979 111.49669,48.0616007 C109.334597,52.4566624 107.876474,57.2429147 106.814333,62.4258481 L106.814333,62.4258481 Z M99.3167878,43.4139808 C96.4603509,49.37106 94.5869957,55.8476679 93.3323634,62.7978224 C91.6989351,55.9046308 92.1677895,48.4658311 94.2790092,41.4902835 C96.4053533,34.5071866 100.235247,27.97842 105.309462,22.6239117 C110.378177,17.263913 116.698774,13.0843494 123.565909,10.5786701 C130.42617,8.08671684 137.843969,7.21168504 144.82935,8.46692673 C137.947777,10.1099276 131.576307,12.3376556 125.776812,15.5111042 C119.978692,18.6522968 114.775233,22.6479322 110.308742,27.3463382 C105.848438,32.0516072 102.139539,37.4610194 99.3167878,43.4139808 L99.3167878,43.4139808 Z M200.204353,67.1338623 C200.364534,71.8274642 199.692188,76.605481 198.306249,81.1837846 C196.179218,88.1675677 192.349324,94.6956481 187.275109,100.050843 C182.206394,105.410155 175.886485,109.589719 169.018662,112.095398 C162.158401,114.588038 154.740602,115.463069 147.755221,114.207828 C154.637481,112.56414 161.008264,110.337099 166.808446,107.16365 C172.606566,104.021771 177.809338,100.026822 182.275829,95.3284162 C186.736133,90.6224609 190.44572,85.2137349 193.268471,79.2600872 C194.979583,75.6913301 196.332524,71.9317817 197.415976,67.9999722 L186.305777,71.4493132 C186.079599,73.0545676 185.746176,74.6515864 185.286259,76.2163492 C183.73189,81.4672263 180.871328,86.3831892 177.061371,90.4021587 C173.2576,94.427305 168.496872,97.5506538 163.330537,99.3913089 C158.169701,101.218924 152.594321,101.811201 147.3833,100.748123 C152.508387,99.3967993 157.211368,97.6762466 161.488118,95.2810615 C165.763492,92.9105832 169.592699,89.9402792 172.895991,86.4682903 C176.193096,82.9880658 178.953975,79.0061564 181.087881,74.6124674 C181.380056,74.0195047 181.656419,73.41762 181.923844,72.8095587 L170.697463,76.2952736 C169.739817,78.0261208 168.565619,79.6451012 167.200304,81.0870164 C164.61473,83.8212334 161.360936,85.9240549 157.838341,87.1237063 C154.31987,88.3116906 150.525037,88.6369966 147.024441,87.7722593 C150.45629,86.7043773 153.553341,85.4772739 156.364405,83.8349593 C158.87917,82.383436 161.136821,80.6299409 163.153169,78.6382999 L154.37693,81.3622224 C143.420037,84.7642088 131.759862,78.6472218 128.337637,67.6629992 C124.92985,56.7247586 131.043518,45.0391379 142.000412,41.6364653 L197.279857,24.474175 C182.073025,4.34158076 155.342138,-5.11974341 129.895444,2.78093582 C97.4826184,12.8441446 79.3519778,47.285396 89.461221,79.7336338 C99.5704642,112.181872 134.06976,130.282333 166.482586,120.218438 C191.965028,112.306778 208.585298,89.3864356 209.661188,64.1978733 L200.204353,67.1338623 Z" id="Fill-23" fill="#0099FF" mask="url(#mask-2)"></path>
            </g>
        </g>
    </g>
</svg>