<svg height="160" viewBox="0 0 697 184" width="697" xmlns="http://www.w3.org/2000/svg"><g fill="none"><path d="m112.748084 54.1207367c-2.586405 6.4282708-3.862814 13.3992342-3.73999 20.425532l3.991906-21z" fill="#fff"/><path d="m106.5 52.1819729c2.493896-5.6360509 5.932181-10.8051498 10.166667-15.284511l1.333333-6.3511932h-26.5625l-6.8958333 64.7405241-10.5625-64.7405241h-29.5625l-10.9375 64.7405241-6.6458334-64.7405241h-26.8333333l18.375 89.0000003h27.4583333l13.2708334-61.7002811 13.1875 61.7002811h27.0833333l5.6875-27.2164252c-4.735275-13.0645463-4.22002-27.4550919 1.4375-40.1478709z" fill="#fff"/><path d="m153.236908 73.0089848c-.284775.6033134-.314017 1.2942525-.081217 1.9190183s.708321 1.1315064 1.320714 1.4074243c.611829.2686629 1.307441.281061 1.928649.0343749.621208-.246686 1.115212-.731489 1.369673-1.3441617.28016-.6080987.299803-1.3024977.054458-1.9251547-.245344-.6226569-.734804-1.1205994-1.35698-1.3804976-1.253197-.4856413-2.671711.0795188-3.235297 1.2889965z" fill="#09f"/><path d="m174.01088 103.978745c-2.869358-4.2595088-5.10596-8.9107968-6.640307-13.8093307-.43577.1863328-.892292.3726656-1.348813.5175911.394269-.4347765.747035-.8488494 1.099801-1.283626-.394268-1.3664406-.726283-2.7742884-1.016797-4.140729-5.748846 5.3606771-14.563639 5.7179432-20.729352.8401664-6.165712-4.8777767-7.826434-13.5223616-3.905445-20.3290805s12.243453-9.7267162 19.571563-6.866826c1.979056.7759627 3.779344 1.9452428 5.291495 3.4368051 2.383568-10.4489347 7.838731-19.9502729 15.666975-27.2874041-2.454294-1.7317634-5.066617-3.2290381-7.802361-4.4719873-20.670837-9.1439097-44.937708-2.3435202-57.813718 16.2013387-12.876011 18.5448589-10.728249 43.6018349 5.116856 59.6960743 15.845105 16.094239 40.916924 18.68482 59.731437 6.171836-2.701761-2.634257-5.121867-5.541476-7.221334-8.674828zm-56.484115-23.8091913c.535579 5.1398469 1.771274 10.1828003 3.67292 14.989439-3.785489-4.0031272-6.447849-8.9301147-7.719357-14.285515-1.324535-5.4356075-1.381328-11.1019679-.166008-16.562916 1.215902-5.4830912 3.695472-10.6081389 7.242085-14.9687354 3.421652-4.3083622 7.92477-7.6369287 13.052355-9.6478985-3.7484 3.5573958-7.007075 7.5953449-9.690699 12.0081141-5.118562 8.5815895-7.357684 18.5693839-6.391296 28.5089191zm9.773703-1.6976989c.374958 3.8258475 1.232528 7.5891598 2.552368 11.200672-2.892297-2.9456375-4.935301-6.6146597-5.914024-10.6209699-2.098799-8.2789536-.135206-17.0604017 5.291495-23.6642662 2.58738-3.2156728 6.001306-5.6700986 9.877457-7.1013503-2.732141 2.7132677-5.109668 5.7601367-7.076077 9.0681965-3.726671 6.3822125-5.379546 13.7597947-4.731219 21.1177179zm6.723311-1.1801077c-.739523-2.760823-.796489-5.6594627-.166008-8.4470872.594536-2.8251656 1.885411-5.457954 3.755924-7.6603486 1.780767-2.1553921 4.142487-3.7574121 6.806315-4.6169129-1.750053 1.8932694-3.281393 3.9766983-4.565211 6.2110935-2.391374 4.2600351-3.480624 9.1252946-3.133395 13.9956641.198394 2.5688051.699883 5.1052833 1.494069 7.5568304-2.03014-1.9086543-3.482469-4.3475953-4.191694-7.0392393z" fill="#09f"/><path d="m305.743809.54626866v39.04838984c-3.118312-4.3549164-8.440232-12.127088-21.952919-12.127088-13.13849 0-17.919903 8.3347684-19.666158 16.4820045 12.071176 18.2255874 12.021972 41.9394127-.124732 60.114517 1.6631 8.876528 6.48609 17.482177 20.560073 17.482177 13.387955 0 18.335678-7.793009 21.183736-12.147925v9.626657h26.256191v-118.47873234zm0 90.78646464c0 4.1673842 0 10.6893407-7.920513 10.6893407-8.585754 0-8.585754-5.9385228-8.585754-10.0433962v-36.4021009c0-3.0421905 0-9.6474944 7.941302-9.6474944 6.236625 0 8.564965 3.7089719 8.564965 9.3766144z" fill="#fff"/><path d="m390.912477 27.354025c-7.992528-.1044116-15.57806 3.5124569-20.52029 9.7843095v-36.59206584h-26.392187v118.62171434h26.392187v-7.510344c3.803149 3.629999 10.657177 9.88863 21.314354 9.88863 4.959417.004859 9.764367-1.722079 13.582678-4.881734 7.710781-6.592414 7.710781-16.501895 7.710781-22.8439639v-38.0524106c0-9.9094819 0-28.4141355-22.087523-28.4141355zm-4.179285 65.0062014c0 4.360172 0 11.2237926-8.483949 11.2237926-7.857056 0-7.857056-7.2599999-7.857056-11.0986202v-36.5920659c0-3.5674135 0-9.7634474 8.630224-9.7634474 7.710781 0 7.710781 6.4672408 7.710781 9.7634474z" fill="#fff"/><path d="m449.611431 43.6886687.125822-13.0416h-26.737253v88.8992003h26.737253v-51.0848003c0-5.8032.272615-14.2272 9.981908-16.2032 2.222862-.5408 2.747122-.5408 14.280839-.5408v-23.1712c-15.077714 1.1856-19.397615 5.1376-24.388569 15.1424z" fill="#fff"/><path d="m548.225568 54.8875648c0-5.800929 0-16.6334881-11.281818-22.8710462-6.740057-3.4306569-16.196875-4.4702499-23.476136-4.4702499-32.663353 0-32.414489 19.6067241-32.020455 31.9986728h25.280398c0-8.9612917 0-13.97213 7.403693-13.97213 3.124503-.3789471 6.109341 1.4080017 7.258523 4.3454987.518466 1.5801814.518466 1.7257244.518466 9.6266313-7.184715 3.5448113-14.589946 6.621459-22.169603 9.2107941-12.443181 4.9900464-20.738636 8.5454545-20.738636 29.6284008 0 5.9256806 0 23.1621326 21.008239 23.1621326 10.514488 0 16.342045-4.990047 21.920738-10.000885v7.505861h30.071023c-2.965625-3.680159-3.753693-5.800929-3.753693-13.951338zm-26.192898 38.0491042c0 5.9256802-.642897 11.581066-9.207954 11.581066-6.615625 0-6.615625-4.8652951-6.615625-10.2711788 0-7.5058615.518466-10.6662243 4.292898-13.5562929 1.410227-.9356337 7.507386-4.158372 11.530681-6.237558z" fill="#fff"/><path d="m610.15428 71.2715507-15.149576-7.7761557c-8.154281-4.1583721-10.989652-5.655386-10.989652-10.5206813-.189592-1.9877124.505607-3.9578892 1.899041-5.3818343s3.342407-2.1558382 5.323913-1.9992761c2.708418-.3540485 5.295246 1.2398772 6.208843 3.8257023.658777 2.2585038.876636 4.6236739.64158 6.9652732h24.980245c0-9.6058395 0-28.8383101-32.099718-28.8383101-6.084666 0-15.273754.5405883-23.034807 5.9256801-6.850424 4.615793-9.064911 10.5414731-9.064911 20.7918602 0 15.8018138 5.049859 19.3572219 18.895579 26.8630834l12.417685 6.5702278c3.746002 2.2455209 7.367827 4.1583721 7.367827 9.0860429.060203 1.8665664-.691027 3.6670729-2.058055 4.9326319-1.367028 1.265558-3.214544 1.870902-5.061418 1.658388-7.367827 0-7.367827-5.9256803-7.367827-8.5662466-.015649-1.0549366.025805-2.1099478.124177-3.1603627h-25.187206c0 10.9365183 0 29.8986953 32.472248 29.8986953 9.333961 0 19.019756-1.725725 26.139229-7.776156 6.208843-5.530635 7.388523-11.85136 7.388523-21.581951 0-8.4207033-1.034807-14.2008405-13.84572-20.9166113z" fill="#fff"/><path d="m683.0508 71.2715507-15.128881-7.7761557c-8.15428-4.1583721-11.010348-5.655386-11.010348-10.5206813-.188742-1.9838194.503794-3.9501763 1.892436-5.3733025s3.331768-2.1578823 5.309822-2.0078079c3.621825 0 5.443085 1.5801814 6.208843 3.8257023.679214 2.2545365.897451 4.6238062.64158 6.9652732h24.980245c0-9.6058395 0-28.8383101-32.099718-28.8383101-6.06397 0-15.253057.5405883-23.014111 5.9256801-6.87112 4.615793-9.064911 10.5414731-9.064911 20.7918602 0 15.8018138 5.049859 19.3572219 18.895579 26.8630834l12.417686 6.5702278c3.746002 2.2455209 7.367827 4.1583721 7.367827 9.0860429.060203 1.8665664-.691028 3.6670729-2.058056 4.9326319-1.367027 1.265558-3.214544 1.870902-5.061418 1.658388-7.367827 0-7.367827-5.9256803-7.367827-8.5662466-.015649-1.0549366.025805-2.1099478.124177-3.1603627h-25.083725c0 10.9365183 0 29.8986953 32.492944 29.8986953 9.313265 0 19.019756-1.725725 26.139229-7.776156 6.208843-5.530635 7.367827-11.85136 7.367827-21.581951-.103481-8.4207033-1.138288-14.2008405-13.9492-20.9166113z" fill="#fff"/><g fill="#09f"><path d="m218.152549 71.9584328c-.565086.3573385-.961898.9302887-1.09957 1.5876505s-.004411 1.342828.369267 1.8994335c.364393.5539608.936041.9357947 1.58466 1.0584783.64862.1226836 1.318944-.0242365 1.8582-.4072758.565677-.3682001.958487-.9519758 1.088323-1.617413.129835-.6654372-.014448-1.3554247-.399751-1.9116841-.7967-1.0743193-2.285255-1.3409402-3.401129-.6091894z"/><path d="m258.094632 48.4769305c-10.545924-15.8210275-29.584422-23.7280303-48.233753-20.0322749-18.649331 3.6957555-33.234714 18.2660344-36.951852 36.9135867-3.717139 18.6475524 4.166414 37.6979477 19.972866 48.2638967 15.806451 10.565948 36.421199 10.565469 52.22716-.001214 21.568441-14.4053044 27.38157-43.5676856 12.985579-65.1439945zm-9.050555 26.1611652c.862684 4.0356188.619395 8.2293634-.704162 12.1381178-2.695611 8.1039771-9.048822 14.4657385-17.148421 17.1715015-3.909906 1.31787-8.103319 1.55405-12.136443.683546 3.751614-.823374 7.384076-2.117878 10.810961-3.852714 6.566063-3.3978163 11.91966-8.744916 15.325883-15.3072847 1.736234-3.4339069 3.030595-7.0739293 3.852182-10.8331666zm-9.878982 0c.699521 2.7312527.606126 5.6053428-.269238 8.2854047-.856076 2.7023276-2.34751 5.1599812-4.349237 7.166875-2.022205 2.0272078-4.500779 3.5401281-7.228019 4.411978-2.679858.8790612-5.556532.9653734-8.284261.2485621 2.511169-.6437627 4.93737-1.582394 7.228018-2.7963241 2.143077-1.1475831 4.104278-2.6064716 5.819694-4.3291239 1.71101-1.7177779 3.168506-3.6706738 4.328526-5.7997833 1.182493-2.2836904 2.099732-4.6952493 2.733807-7.1875885zm-55.421708-14.6237392c-2.300915 4.629386-3.965922 9.5484552-4.949847 14.6237392-1.032584-5.4011852-.632717-10.9786632 1.159797-16.1772526 3.635838-10.7534718 12.049668-19.2143623 22.781719-22.9091439 5.205058-1.7926068 10.788388-2.1924912 16.195731-1.1599566-5.073014 1.0003158-9.990174 2.6721022-14.621721 4.9712428-8.93965 4.5132049-16.198072 11.7726281-20.710654 20.7135116zm5.239795 14.6237392c-.852451-4.0363952-.60932-8.2274084.704162-12.1381178 1.329975-3.9947314 3.570495-7.6254427 6.544567-10.605318 2.976252-2.9887708 6.616758-5.2315752 10.624565-6.5454697 3.908215-1.3237398 8.101381-1.5670628 12.136443-.7042593-3.759519.8188974-7.399388 2.1135608-10.831672 3.8527131-3.248623 1.699017-6.222888 3.8776524-8.822738 6.4626156-2.581888 2.5899498-4.75385 5.5584744-6.441014 8.8032425-1.756872 3.4457895-3.072029 7.0995069-3.914313 10.8745936zm9.878982 0c-.699521-2.7312527-.606126-5.6053428.269238-8.2854046.864092-2.6986805 2.354445-5.1545528 4.349237-7.1668751 2.02213-2.0329405 4.510649-3.5404806 7.248729-4.3912644 2.677853-.8858864 5.554546-.9793918 8.284261-.2692757-2.51894.6401507-4.952417 1.5789073-7.248728 2.7963241-2.105315 1.1842826-4.036031 2.6551753-5.736851 4.3705509-1.716089 1.7211191-3.174047 3.681611-4.328527 5.8204968-1.195657 2.2630202-2.13351 4.6531376-2.795938 7.125448zm6.896647 8.8032425c-3.592265-5.3427735-3.610295-12.3243512-.045675-17.6856133s10.008931-8.0449425 16.324619-6.7982531c6.315688 1.2466893 11.257269 6.1778953 12.517928 12.4916467 1.260659 6.3137513-1.408211 12.7649464-6.760737 16.3420571-7.278331 4.8550427-17.111712 2.9103204-21.994713-4.3498374zm43.492372 21.5006248c-3.969529 3.975856-8.803281 6.981419-14.124665 8.782529-5.198067 1.79181-10.774524 2.191713-16.175021 1.159957 5.03111-1.008304 9.90616-2.67998 14.497458-4.971243 4.431973-2.230137 8.479967-5.152926 11.991468-8.658248 3.502095-3.519062 6.430306-7.5660026 8.677764-11.9931231 2.300914-4.629386 3.965922-9.5484552 4.949846-14.6237392 1.032584 5.4011853.632718 10.9786632-1.159796 16.1772526-1.737156 5.3041474-4.670852 10.1376177-8.574211 14.1266147z"/><path d="m39.9174888 176.546269h-22.587444v-5.604917l7.632287-7.800873c2.0627803-2.300525 3.5892377-3.869065 4.2493274-4.70562.5469498-.63886 1.0177583-1.340827 1.4026906-2.091387.2543347-.601598.3875841-1.248644.3919282-1.903162.0381352-.732696-.2585973-1.442388-.8044843-1.924076-.6172298-.519531-1.4064313-.781262-2.2071749-.731985-1.0457001.0267-2.0676611.32171-2.9704036.857468-1.2084612.680358-2.3484136 1.478884-3.4035874 2.384181l-4.6206278-5.437605c1.2651769-1.180601 2.6477671-2.224915 4.1255605-3.116167 1.1170471-.643125 2.318607-1.121964 3.5686099-1.422143 1.417419-.351126 2.8728296-.519765 4.3318386-.501933 1.8484832-.030581 3.6826939.332799 5.3838565 1.066608 1.4700921.68107 2.7211762 1.768299 3.6098654 3.13708.8875125 1.304596 1.3689192 2.848978 1.3820628 4.43374.0126229 1.159495-.14023 2.314745-.4538116 3.429874-.3330968 1.092692-.8119701 2.134085-1.4233184 3.095253-.7485436 1.142215-1.597765 2.213213-2.5372198 3.199822-1.0520179 1.129349-3.3004484 3.241649-6.7659192 6.27416v.230053h11.7784753z"/><path d="m80.9588732 160.59056c0 5.502447-.9458778 9.521088-2.8166139 12.09714-2.0326752 2.628547-5.2833294 4.070875-8.6390171 3.833166-3.3879906.174937-6.6261681-1.385185-8.554939-4.121683-2.1756339-3.590652-3.1872058-7.744662-2.9006919-11.911665 0-5.495577.9388713-9.548566 2.8166138-12.158965 2.0461968-2.603719 5.2973643-4.015252 8.6390171-3.750732 3.3871466-.170903 6.6234273 1.388304 8.5549391 4.121683 2.1543931 3.59152 3.1645352 7.732483 2.9006919 11.891056zm-14.3773424 0c-.1245418 2.437029.1018935 4.879105.6726243 7.254163.4414096 1.318938 1.1981118 2.060841 2.2490871 2.060841s1.8286971-.680077 2.2701067-2.060841c.5419608-2.358445.7610894-4.77716.6516047-7.192337.1157287-2.43003-.1106079-4.864105-.6726242-7.233554-.4414096-1.401373-1.1981119-2.060842-2.2490872-2.060842s-1.8076775.659469-2.2490871 2.060842c-.5562635 2.349391-.7825639 4.762275-.6726243 7.171728z"/><path d="m144.6875 176.546269-1.541667-5.977558h-10.208333l-1.583333 5.977558h-9.354167l10.25-32h11.333333l10.416667 32zm-3.3125-13.032344-1.354167-5.238283c-.3125-1.161717-.708333-2.661387-1.145833-4.49901-.4375-1.837624-.75-3.168317-.895833-3.970957-.125.739274-.395834 1.964356-.770834 3.654125s-1.208333 5.048185-2.520833 10.054125z"/><path d="m202 176.546269h-11.155989l-11.511142-21.852122h-.188022c.271588 3.433024.396936 6.167108.396936 7.873342v13.97878h-7.541783v-31h11.114206l11.469359 21.543766h.14624c-.208914-3.124668-.31337-5.632626-.31337-7.523872v-14.019894h7.583565z"/><path d="m243.993433 166.660806c.041174 1.820613-.476713 3.611-1.48576 5.136418-1.023027 1.537182-2.477021 2.74831-4.185239 3.486163-2.079445.883255-4.328146 1.312517-6.591752 1.25832-1.774946.027953-3.548348-.11715-5.294328-.433192-1.536069-.329747-3.02578-.842335-4.436354-1.526486v-7.488031c1.611859.819971 3.310049 1.463288 5.06414 1.918421 1.574655.434775 3.198994.67045 4.833951.701358.981393.070264 1.960821-.160298 2.804111-.660102.548675-.385078.875786-1.006949.8789-1.670883.007572-.399578-.117331-.79068-.355745-1.113922-.322624-.387572-.712279-.715808-1.150941-.969524-1.359109-.756349-2.755954-1.444825-4.18524-2.062819-1.654815-.688878-3.209876-1.590593-4.624689-2.681664-.988817-.805902-1.770385-1.830795-2.280956-2.991087-.531421-1.26036-.788087-2.616778-.753343-3.98124-.110936-2.612063 1.075936-5.113643 3.180782-6.70416 2.53749-1.6678 5.55563-2.478549 8.600667-2.310357 3.449399.040533 6.851099.799761 9.981796 2.227844l-2.6367 6.477251c-2.375288-1.216294-4.986296-1.919525-7.658989-2.062819-.844691-.072443-1.690149.130476-2.406512.577589-.475189.321798-.757428.855053-.753343 1.423345.03547.664454.393895 1.271244.962605 1.629627 1.656633 1.026175 3.399968 1.909585 5.210623 2.640407 2.178838.834898 4.123331 2.171708 5.670999 3.898727 1.119068 1.53409 1.686187 3.392726 1.611317 5.280816z"/><path d="m315.964668 160.429202c.296648 4.409243-1.284666 8.741915-4.368108 11.968261-3.361574 2.922373-7.77893 4.403723-12.264304 4.112805h-10.332256v-30.92829h10.983272c4.276344-.279059 8.495272 1.085725 11.760291 3.804344 2.952691 2.921941 4.488808 6.940595 4.221105 11.04288zm-8.88322.287896c.179711-2.235259-.428045-4.463343-1.722043-6.313155-1.315399-1.453121-3.252718-2.214989-5.229129-2.056402h-2.499062v17.479419h1.869046c2.155476.185202 4.273493-.638296 5.712142-2.220914 1.407701-2.020126 2.067237-4.451049 1.869046-6.888948z"/><path d="m355 176.546269h-19v-31h19v6.722148h-10.323333v4.872016h9.542222v6.722149h-9.542222v5.920424h10.323333z"/><path d="m414.686297 176.546269-6.570262-22.324934c.293878 3.80305.461808 6.742706.461808 8.86008v13.464854h-7.577843v-31h11.314286l6.612245 22.016578h.16793l6.486297-22.016578h11.419242v31h-7.892711v-13.588197c0-.719496 0-1.500663 0-2.364058s.104956-2.980769.293877-6.331565h-.209912l-6.297376 22.28382z"/><path d="m483.975661 144.546269v19.049976c.219425 3.554934-1.052401 7.039769-3.506868 9.608909-5.929033 4.45482-14.068463 4.45482-19.997496 0-2.425163-2.549746-3.674663-6.00521-3.444245-9.524988v-19.133897h8.600175v18.567433c-.142284 1.715211.29132 3.428882 1.231579 4.867395 2.094332 1.998123 5.378636 1.998123 7.472968 0 .90174-1.476545 1.311248-3.203738 1.168956-4.930336v-18.504492z"/><path d="m525.997852 166.663074c.034679 1.822295-.486199 3.612389-1.494194 5.135075-1.058854 1.561756-2.561494 2.775008-4.316559 3.485252-2.061618.88491-4.292095 1.31414-6.537098 1.25799-1.760197.027008-3.518802-.11805-5.250431-.433078-1.523332-.329661-3.000691-.842115-4.39957-1.526087v-7.486073c1.598494.819757 3.282604 1.462905 5.022151 1.917919 1.568353.436173 3.18628.671799 4.814624.701175.966434.067293 1.930246-.16315 2.760108-.659929.544127-.384978.868525-1.006687.871613-1.670446.00751-.399475-.116358-.790474-.352796-1.113631-.314854-.392399-.702268-.72139-1.141397-.969271-.518818-.329965-1.909248-.989894-4.150539-2.06228-1.649672-.684423-3.199253-1.586155-4.607097-2.680963-.974507-.81147-1.74842-1.834544-2.262043-2.990304-.527015-1.260031-.781553-2.616094-.747097-3.980199-.110016-2.611381 1.067015-5.112306 3.154409-6.702408 2.556806-1.697938 5.606051-2.509847 8.674625-2.309752 3.427223.042572 6.807064.801438 9.919786 2.227261l-2.594087 6.49618c-2.355593-1.215976-4.944952-1.919023-7.595484-2.06228-.837688-.072423-1.676137.130443-2.38656.577439-.471248.321713-.751147.854829-.747097 1.422972.035177.664281.39063 1.270912.954624 1.629201 1.642897 1.025907 3.371778 1.909086 5.16742 2.639717 2.15005.852247 4.064029 2.202737 5.582474 3.938954 1.11868 1.508947 1.702527 3.343804 1.660215 5.217566z"/><path d="m545 176.546269v-31h9v31z"/><path d="m604.077377 160.482895c0 7.074147-2.227964 11.838509-6.683891 14.293086l7.606514 8.770288h-10.456394l-5.474229-6.929355c-4.128857.263453-8.177028-1.238049-11.153487-4.136928-2.7881-3.338949-4.177955-7.641953-3.875017-11.997091-.295113-4.299544 1.071624-8.547333 3.813509-11.852299 6.494669-5.44577 15.914817-5.44577 22.409487 0 2.730556 3.311279 4.095778 7.554359 3.813508 11.852299zm-21.281837 0c0 6.039915 2.050274 9.039188 6.15082 9.039188 1.84086.135009 3.62151-.692919 4.715629-2.192572 1.177758-2.076475 1.713258-4.460779 1.537705-6.846616.167986-2.407582-.374193-4.811458-1.558208-6.90867-1.065169-1.505197-2.824538-2.349681-4.65412-2.233941-4.127884 0-6.191826 3.047537-6.191826 9.142611z"/><path d="m650.975661 144.546269v19.049976c.219425 3.554934-1.052401 7.039769-3.506868 9.608909-5.929033 4.45482-14.068463 4.45482-19.997496 0-2.425163-2.549746-3.674663-6.00521-3.444245-9.524988v-19.133897h8.537553v18.567433c-.147798 1.71861.294185 3.436287 1.252453 4.867395 2.094331 1.998123 5.378636 1.998123 7.472968 0 .914878-1.494312 1.324895-3.245728 1.168956-4.993276v-18.441552z"/><path d="m691 176.546269h-19v-31h19v6.722148h-10.359777v4.872016h9.595531v6.722149h-9.595531v5.920424h10.359777z"/></g></g></svg>